<?xml version="1.0" encoding="UTF-8"?>
<svg xmlns="http://www.w3.org/2000/svg" version="1.1" viewBox="0 0 400 400">
  <defs>
    <style>
      .cls-1 {
        fill: #7871AA;
      }

      .cls-2 {
        fill: #7871AA;
      }

      .cls-3 {
        fill: #7871AA;
      }

      .cls-4 {
        fill: #7871AA;
      }

      .cls-5 {
        fill: #edf1f1;
      }

      .cls-6 {
        fill: #7871AA;
      }

      .cls-7 {
        fill: #f4f4f4;
      }
    </style>
  </defs>
  <!-- Generator: Adobe Illustrator 28.7.1, SVG Export Plug-In . SVG Version: 1.2.0 Build 142)  -->
  <g>
    <g id="Capa_1">
      <path class="cls-2" d="M301.63,68.63c-.49,12.66-2.41,25-8.74,36.23-1.03,1.83-.17,2.53.97,3.56,15.38,13.96,27.38,30.42,35.03,49.7,16.91,42.59,14.07,84.02-8.53,123.97-1.43,2.53-1.9,4.42-.5,7.31,5.04,10.37,8.84,21.26,12.39,32.23,1.02,3.16.69,6.01-1.53,8.41-2.28,2.47-5.09,2.2-8.06,1.19-10.8-3.67-21.67-7.17-32.45-10.9-1.87-.65-2.88.05-4.14,1.03-18.74,14.5-39.75,23.88-63.18,27.66-26.7,4.3-52.64,1.46-77.4-9.42-37.93-16.67-63.89-44.74-77.22-83.99-4.55-13.4-2.98-26.48,6.27-37.93,3.73-4.62,8.43-7.98,13.93-10.15,1.89-.74,3.34-1.72,4.62-3.38,7.24-9.4,17.6-13.07,28.73-15.18,17.23-3.28,33.44.84,49.13,7.4,13.6,5.69,27.44,10.46,42.21,11.19,20.61,1.02,38.64-5.3,52.87-20.83,14.26-15.57,14.18-38.25-.07-53.73-1.08-1.17-2.02-1.12-3.26-.91-14.75,2.43-28.69-.19-42.01-6.69-2.34-1.14-4.53-2.56-6.39-4.38-2.72-2.67-2.77-4.2-.71-7.38,1.33-2.06,3.18-3.56,5.08-4.98,9.48-7.09,19.89-12.41,31.8-12.99,5.26-.25,6.94-1.71,8.92-6.54,6.17-14.97,16.33-26.82,31.12-34.2.55-.28,1.15-.47,1.75-.63,5.58-1.58,7.71-.31,8.73,5.33.54,2.97.66,5.98.64,9.01Z"/>
      <path class="cls-3" d="M194.52,79.95c-28.71.65-54.39,9.91-76.5,28.14-32.14,26.49-48.36,60.91-49.4,102.5-.07,2.68-.97,4.49-3.72,4.82-2.28.28-3.79-1.76-3.79-4.96.03-23.53,5.84-45.61,17.24-66.13,15.27-27.48,37.41-47.6,66.14-60.35,17.49-7.76,35.89-11.51,55.02-11.66,3.36-.03,4.93,1.26,4.91,3.82-.01,2.56-1.56,3.77-4.94,3.82-1.66.02-3.32,0-4.98,0Z"/>
      <path class="cls-4" d="M225.7,74.36c8.5,1.62,17.16,3.63,25.39,7.13,2.33.99,2.78,2.99,1.79,5.18-.95,2.1-2.62,2.84-4.85,1.87-7.45-3.25-15.25-5.2-23.26-6.39-2.49-.37-4.03-1.6-3.68-4.36.32-2.54,1.93-3.49,4.61-3.42Z"/>
      <path class="cls-6" d="M212.67,72.82c.54.08,1.49.12,2.37.37,2.19.62,3.38,2.15,2.87,4.4-.6,2.65-2.69,3.05-5.09,2.78-3.51-.4-5.4-1.78-5.14-4.13.23-2.07,1.42-3.39,3.68-3.41.31,0,.62,0,1.31,0Z"/>
      <path class="cls-7" d="M279.69,316.52c-5.2,4.24-10.5,7.63-16.05,10.56-37.11,19.58-75.33,21.81-114.14,5.96-27.71-11.31-48.88-30.55-63.77-56.56-5.27-9.21-9.78-18.79-11.93-29.27-2.97-14.48,4.79-28.8,18.07-33.76,5.59-2.09,11.26-1.44,16.9-.43,16.63,2.97,32.1,9.28,46.69,17.53,14.9,8.43,29.49,17.39,45.62,23.38,9.45,3.51,19.06,6.45,29.18,7.31.59.05,1.37-.13,1.61.62.96,2.96,2.03,5.89,2.71,8.92.35,1.52-1.24,1.02-2.01,1.02-13.84.06-27.56-1.05-41.14-3.91-12.92-2.72-25.14-7.27-36.39-14.06-6.99-4.22-13.42-9.34-20.1-14.06-.76-.54-1.48-1.18-2.32-1.55-1.55-.68-2.92-.21-3.72,1.27-.73,1.35-.84,2.61.6,3.85,21.63,18.58,46.48,29.75,74.92,32.8,10.34,1.11,20.69,1.68,31.08,1.25,2.21-.09,2.53,1.38,3.22,2.69,2.58,4.9,2.58,4.94-2.93,6.15-16.05,3.53-32.2,2.64-48.32.75-15.25-1.79-29.95-5.68-43.71-12.69-9.85-5.02-18.59-11.71-27.45-18.22-1.02-.75-1.99-1.62-3.3-1.49-1.2.12-2.08.87-2.47,2.09-.46,1.42-.25,2.54,1.01,3.56,15.19,12.33,31.4,22.89,50.62,27.79,26.57,6.78,53.33,9.18,80.3,2.21,1.63-.42,2.48,0,3.39,1.24,1.67,2.24,3.35,4.51,5.27,6.53,1.62,1.71,1.36,2.32-.8,2.99-8.85,2.76-17.9,4.58-27.1,5.5-16.6,1.66-33.15,1.62-49.6-1.61-23.3-4.59-44.43-13.98-63.27-28.47-.9-.69-1.67-1.62-2.95-1.54-1.38.09-2.34.79-2.75,2.14-.54,1.8.42,2.94,1.73,3.97,6.8,5.31,13.96,10.07,21.56,14.16,28.09,15.11,58.08,20.33,89.7,17.45,12.98-1.18,25.71-3.31,38.04-7.6,1.43-.5,2.49-.35,3.7.62,1.74,1.4,3.68,2.56,5.95,4.1-6.53,3.56-12.9,6.22-19.56,8.12-28.25,8.08-56.72,9.99-85.39,2.37-10.48-2.79-20.31-7.24-29.6-12.83-1.71-1.03-3.45-2.11-4.76.21-1.26,2.23.41,3.36,2.15,4.35,20.1,11.55,41.83,17.67,64.91,18.46,23.19.79,45.73-2.79,67.14-12.13,2.75-1.2,5.45-2.57,8.03-4.1,1.96-1.17,3.65-1.57,5.73-.25,1.62,1.03,3.5,1.64,5.68,2.63Z"/>
      <path class="cls-1" d="M302.98,259.62c-1.22-1.51-2.22-2.8-3.28-4.03-.98-1.14-.16-1.84.52-2.66,13.47-16.32,21.57-35.02,24.79-55.88.74-4.82,1.01-9.69,1.08-14.57.02-1.55-.19-3.12-2.02-3.33-1.9-.22-2.43,1.44-2.59,2.88-.69,6.39-1.1,12.8-2.5,19.1-3.86,17.41-11.36,33.05-22.38,47.05-1.2,1.52-2.03,1.77-3.34.24-1.15-1.34-2.29-2.81-3.75-3.71-2.9-1.8-1.76-2.92.25-4.39,17.66-12.96,25.3-31,26.08-52.33.71-19.27-4.04-37.38-12.15-54.72-.17-.36-.22-.78-.28-1.18-.06-.35-.61-.64.43-1.49,11.63,14.02,19.35,29.98,23.83,47.47,8.91,34.77,4.29,67.84-13.09,99.3-3.89-4.04-3.92-4.83-1.01-9.28,2.44-3.73,4.7-7.58,7.11-11.33,1-1.56,1.21-2.95-.54-3.96-1.71-.99-2.64.24-3.49,1.54-2.75,4.23-5.54,8.44-8.32,12.68-1.91-1.45-1.98-2.71-.88-4.47,8.37-13.31,14.73-27.61,20.57-42.17.82-2.04.64-3.46-1.52-4.2-2.14-.74-3.25.41-3.96,2.31-4.82,12.82-10.27,25.36-17.17,37.23-.71,1.23-1.48,2.43-2.4,3.93Z"/>
      <path class="cls-5" d="M216.76,241.11c-3.06-.09-5.43-2.66-5.25-5.7.16-2.74,2.85-5.22,5.59-5.14,3.09.09,5.47,2.57,5.38,5.61-.09,3-2.62,5.32-5.72,5.22Z"/>
    </g>
  </g>
</svg>